<svg display="none" xmlns="http://www.w3.org/2000/svg">
<symbol viewBox="0 0 260 260" id="insta">
<path d="M164.58,64H95.42C78.1,64,64,78.1,64,95.42v69.16C64,181.9,78.1,196,95.42,196h69.16c17.32,0,31.42-14.1,31.42-31.42V95.42
	C196,78.1,181.9,64,164.58,64z M130,171.1c-22.66,0-41.1-18.44-41.1-41.1s18.44-41.1,41.1-41.1s41.1,18.44,41.1,41.1
	S152.66,171.1,130,171.1z M172.22,97.3c-5.3,0-9.6-4.3-9.6-9.61c0-5.3,4.3-9.6,9.6-9.6c5.31,0,9.61,4.3,9.61,9.6
	C181.83,93,177.53,97.3,172.22,97.3z M130,102.9c-14.94,0-27.1,12.16-27.1,27.1s12.16,27.1,27.1,27.1s27.1-12.16,27.1-27.1
	S144.94,102.9,130,102.9z M130,2C59.31,2,2,59.31,2,130s57.31,128,128,128s128-57.31,128-128S200.69,2,130,2z M210,164.58
	c0,25.04-20.38,45.42-45.42,45.42H95.42C70.38,210,50,189.62,50,164.58V95.42C50,70.38,70.38,50,95.42,50h69.16
	C189.62,50,210,70.38,210,95.42V164.58z"/>     
</symbol>
<symbol viewBox="0 0 260 260" id="twitter">
<path d="M130,2C59.31,2,2,59.31,2,130s57.31,128,128,128s128-57.31,128-128S200.69,2,130,2z M194.08,97.09l0.11,4.28
	c0,50.62-33.26,94.13-94.12,94.13c-18.69,0-36.07-5.48-50.71-14.89c2.59,0.3,5.22,0.46,7.89,0.46c15.5,0,29.77-5.27,41.08-14.14
	c-14.47-0.26-26.43-9.08-30.64-22.23c5.11,0.82,11.26,0.12,14.69-1.29c-7.56-1.53-14.19-5.63-18.94-11.36
	c-4.74-5.72-7.59-13.07-7.59-21.08c4.46,2.48,9.56,3.55,14.98,3.74c-8.87-5.93-14.71-16.06-14.71-27.54
	c0-6.06,1.62-11.75,4.47-16.62c16.32,20.01,40.7,33.18,68.19,34.56c-0.57-2.42-0.86-4.95-0.86-7.54c0-18.26,14.82-33.07,33.09-33.07
	c9.52,0,17.54,3.99,23.11,9.42c6.25-0.21,14.88-3.21,22.05-7c-2.47,7.71-7.71,14.2-14.54,18.29c6.69-0.26,12.43-1.65,18.36-4.28
	C205.57,87.56,200.58,92.46,194.08,97.09z"/>   
</symbol>
<symbol viewBox="0 0 260 260" id="fb">
<path d="M130,2C59.308,2,2,59.308,2,130s57.308,128,128,128s128-57.308,128-128S200.692,2,130,2z M179,71h-24
	c-6.627,0-12,5.373-12,12v24h36l-4,32h-32v80h-32v-80H82v-32h29V82.352c0-23.519,19.798-42.188,43.277-40.806L179,43V71z"/>    
</symbol>
<symbol viewBox="-202 3.9 554.1 554.1" id="network">
<path d="M254.6,99.3C205.5,50.1,140.1,23.1,70.5,23.1C1,23.1-64.4,50.1-113.6,99.3s-76.3,114.6-76.3,184.1
	c0,69.5,27.1,134.9,76.3,184.1C-64.4,516.7,1,543.8,70.5,543.8c69.5,0,134.9-27.1,184.1-76.3s76.3-114.6,76.3-184.1
	C330.9,213.9,303.8,148.5,254.6,99.3z M295.4,280.7c-11.9-29.5-27.7-57-47-81.7c11.8,3.1,23.4,6.9,34.6,11.3
	C290.9,232.9,295.1,256.7,295.4,280.7z M273.3,186.4c-14.7-4.9-29.8-8.8-45.3-11.4c-24.4-26-52.7-48.1-84.1-65.4
	c10.2-9,21-17.2,32.3-24.7C218.6,107.5,252.6,143.1,273.3,186.4z M197.2,171.3c-7.2-0.5-14.4-0.8-21.6-0.8c-2.5,0-5,0-7.5,0.1
	c-4.6-9.1-13.9-14.8-24.1-14.8c-12.2,0-22.9,8.3-26,20.1c-11.9,2.3-23.6,5.2-35.1,8.8c12.7-22.5,28.3-43.1,46.3-61.4
	C154,136.4,176.8,152.5,197.2,171.3z M9.2,67c19.9-5.7,40.6-8.5,61.3-8.6c29.4,0,58.5,5.8,85.7,17.1c-10.7,7.6-20.9,15.9-30.5,24.8
	C89.5,83.1,49.8,72.1,7.9,68.7C8.3,68.1,8.8,67.6,9.2,67z M111.2,114.6L111.2,114.6C89,138,70.4,164.9,56.4,194.4
	c-20.9,8.7-40.6,19.7-58.8,32.6c-8.2-0.5-16.4-0.8-24.7-0.8c-9.9,0-19.8,0.4-29.7,1.1c1.8-13.4,4.4-26.5,7.8-39.3
	c16.5-0.6,29.8-14.1,29.8-30.8c0-9.4-4.2-17.8-10.8-23.4c7.2-16.3,15.7-31.9,25.2-46.7C36.4,89,75.5,98.6,111.2,114.6z M45.4,220.5
	c-1.4,3.8-2.7,7.7-4,11.6c-4.5-0.8-8.9-1.5-13.4-2.1C33.6,226.7,39.4,223.5,45.4,220.5z M-58.9,246.7c10.5-0.9,21.1-1.3,31.8-1.3
	c0.4,0,0.7,0,1.1,0c-12.2,10.5-23.6,22-34,34.2c0-1.5,0-3.1,0-4.6C-60,265.5-59.6,256.1-58.9,246.7z M-39.4,87.4
	c4.1-0.2,8.2-0.5,12.3-0.6l0,0c-7.6,12.7-14.5,26-20.6,39.7c-0.8-0.1-1.5-0.1-2.3-0.1c-17,0-30.8,13.8-30.8,30.8
	c0,10.6,5.3,19.9,13.5,25.5c-3.9,15.2-7,30.7-8.9,46.6c-25.5,3.1-50.5,8.8-74.8,16.7C-139.7,178.9-98.7,120.7-39.4,87.4z
	 M-122.5,398.6c-20.8-34.8-31.9-74.6-32-115.2c0.1-5.5,0.3-11,0.8-16.5c24.4-8.5,49.6-14.6,75.4-18.1c-0.6,8.7-0.9,17.4-0.9,26.2
	c0,9.5,0.4,18.8,1.1,28.1C-98,331.8-113.1,364-122.5,398.6z M-5.9,494.7c-40.5-14.6-76-40.6-102.2-74.8c6.5-31.1,18-60.4,33.5-86.9
	c2.2,14,5.3,27.7,9,41.1c-6.1,5.1-9.7,12.7-9.7,20.7c0,14.8,11.9,26.8,26.7,26.9C-37.1,447.8-22.8,472.3-5.9,494.7L-5.9,494.7z
	 M70.5,508.4c-14.9,0-29.7-1.5-44.3-4.4C3,477.6-16.2,447.6-30.6,415.1c5.9-5.1,9.2-12.5,9.2-20.3c0-14.5-11.6-26.4-26.1-26.9
	c-5.3-19.2-9-39.1-11-59.5c17.3-23.6,38-44.4,61.4-61.8c11.1,0.9,22.1,2.2,33,4c-6.2,24.5-9.6,50.1-9.6,76.5
	c0,41.5,8.2,81,23.1,117.1c-4.8,5-7.5,11.7-7.5,18.6c0,14.9,12.1,27,27,27c0,0,0,0,0,0c1.2,0,2.5-0.1,3.7-0.3
	c3.9,6.3,8,12.4,12.3,18.4C80.2,508.2,75.4,508.4,70.5,508.4z M107,505.4c-6.3-8-12.1-16.4-17.5-25c4.2-4.9,6.5-11.1,6.5-17.5
	c0-14.9-12.1-27-27-27c-0.7,0-1.5,0-2.2,0.1c-13.7-33.6-21.2-70.3-21.2-108.9c0-25.2,3.2-49.6,9.2-72.8c20,4.4,39.5,10.4,58.5,17.8
	c-0.2,1.3-0.3,2.7-0.3,4.1c0,17,13.8,30.8,30.8,30.8c8.7,0,16.5-3.6,22.1-9.4c28.1,16.4,54.3,36.5,77.7,59.9
	c9.4,9.4,18.1,19.2,26.4,29.4C237.4,449.9,177,493.8,107,505.4z M290.9,328.6c-2.8,13.4-6.8,26.4-11.9,39.1
	c-6.9-8.1-14.2-16-21.8-23.6c-25-25-52.9-46.3-82.9-63.6c0.2-1.4,0.3-2.8,0.3-4.2c0-17-13.8-30.8-30.8-30.8
	c-8.7,0-16.6,3.6-22.2,9.4c-19.9-7.9-40.4-14.3-61.4-19c3-9.1,6.4-17.9,10.3-26.6c15.9-6.2,32.4-11,49.5-14.3
	c4.6,9,13.9,14.7,24,14.7c12.2,0,22.8-8.2,26-20c1.9,0,3.7-0.1,5.6-0.1c14.6,0,29,1.1,43,3.2C252.8,231,278,277.3,290.9,328.6
	C290.9,328.6,290.9,328.6,290.9,328.6z"/>    
</symbol>
<symbol id="menu-btn" viewBox="0 0 24 24"> 
<path class="cls-3" d="M21,1H3A3,3,0,0,0,3,7H21a3,3,0,0,0,0-6Zm0,4H3A1,1,0,0,1,3,3H21a1,1,0,0,1,0,2Z"/><path class="cls-3" d="M21,17H3a3,3,0,0,0,0,6H21a3,3,0,0,0,0-6Zm0,4H3a1,1,0,0,1,0-2H21a1,1,0,0,1,0,2Z"/><path class="cls-3" d="M21,9H3a3,3,0,0,0,0,6H21a3,3,0,0,0,0-6Zm0,4H3a1,1,0,0,1,0-2H21a1,1,0,0,1,0,2Z"/>
</symbol>
<symbol id="close-btn" viewBox="0 0 512.001 512.001"> 
	<path style="fill:#FF6465;" d="M457.127,9.187H54.873c-25.231,0-45.686,20.455-45.686,45.686v402.254
	c0,25.233,20.455,45.686,45.686,45.686h402.254c25.231,0,45.686-20.455,45.686-45.686V54.874
	C502.814,29.641,482.359,9.187,457.127,9.187z"/>
<polygon style="fill:#FFFFFF;" points="367.788,195.507 316.493,144.213 256.001,204.706 195.507,144.213 144.212,195.507 
	204.705,256.001 144.212,316.494 195.507,367.789 256.001,307.296 316.493,367.789 367.788,316.494 307.295,256.001 "/>
<path style="opacity:0.1;enable-background:new    ;" d="M70.427,457.127V54.874c0-25.231,20.455-45.686,45.686-45.686H54.872
	c-25.231,0-45.686,20.455-45.686,45.686v402.254c0,25.231,20.455,45.686,45.686,45.686h61.241
	C90.882,502.814,70.427,482.36,70.427,457.127z"/>
<path d="M54.872,512.001h55.403c5.073,0,9.186-4.113,9.186-9.186c0-5.073-4.113-9.186-9.186-9.186H54.872
	c-20.126,0-36.5-16.373-36.5-36.5V54.874c0-20.126,16.373-36.501,36.5-36.501h308.929c5.074,0,9.186-4.113,9.186-9.186
	s-4.112-9.186-9.186-9.186H54.872C24.615,0.001,0,24.616,0,54.874v402.254C0,487.384,24.615,512.001,54.872,512.001z"/>
<path d="M400.546,18.373h56.581c20.128,0,36.501,16.375,36.501,36.5v402.254c0,20.126-16.373,36.5-36.501,36.5H147.021
	c-5.073,0-9.186,4.113-9.186,9.186s4.113,9.186,9.186,9.186h310.107c30.257,0,54.873-24.615,54.873-54.872V54.874
	c0-30.257-24.617-54.872-54.873-54.872h-56.581c-5.074,0-9.186,4.113-9.186,9.186S395.471,18.373,400.546,18.373z"/>
<path d="M309.997,137.717l-53.998,53.996l-53.998-53.996c-3.588-3.588-9.404-3.588-12.99,0l-51.294,51.294
	c-3.588,3.588-3.588,9.404,0,12.99L191.714,256l-53.998,53.998c-3.588,3.588-3.588,9.403,0,12.99l51.294,51.294
	c1.722,1.723,4.059,2.691,6.495,2.691c2.436,0,4.773-0.968,6.495-2.691l53.998-53.998l53.998,53.998
	c1.722,1.723,4.059,2.691,6.495,2.691s4.773-0.968,6.495-2.691l51.296-51.294c3.587-3.587,3.587-9.404,0-12.99L320.286,256
	l53.998-53.998c3.587-3.588,3.587-9.404,0-12.99l-51.296-51.294C319.401,134.13,313.585,134.13,309.997,137.717z M300.799,249.505
	c-1.723,1.723-2.691,4.059-2.691,6.495s0.968,4.772,2.691,6.495l53.998,53.996l-38.304,38.304l-53.998-53.998
	c-1.793-1.794-4.145-2.691-6.495-2.691c-2.35,0-4.702,0.897-6.495,2.691l-53.998,53.998l-38.304-38.304l53.998-53.996
	c1.723-1.723,2.691-4.059,2.691-6.495s-0.968-4.772-2.691-6.495l-53.998-53.998l38.304-38.304l53.998,53.998
	c3.588,3.588,9.404,3.588,12.99,0l53.998-53.998l38.304,38.304L300.799,249.505z"/>
</symbol>
<symbol id="next" viewBox="0 0 330 330">
    <path d="M165,0C74.019,0,0,74.02,0,165.001C0,255.981,74.019,330,165,330s165-74.019,165-164.999C330,74.02,255.981,0,165,0z
		 M165,300c-74.44,0-135-60.561-135-134.999C30,90.562,90.56,30,165,30s135,60.562,135,135.001C300,239.439,239.439,300,165,300z"/>
	<path d="M185.606,94.395c-5.857-5.857-15.355-5.857-21.213,0c-5.858,5.857-5.858,15.355,0,21.213l34.395,34.395l-103.79,0.006
		c-8.284,0-15,6.717-14.999,15.001c0,8.284,6.717,14.999,15.001,14.999l103.784-0.006l-34.392,34.393
		c-5.858,5.857-5.858,15.355,0,21.213c2.929,2.929,6.767,4.394,10.606,4.394c3.839,0,7.678-1.465,10.606-4.394l60-60.001
		C248.42,172.793,250,168.979,250,165s-1.581-7.794-4.394-10.606L185.606,94.395z"/>
        </symbol>
</svg>